<svg id="svg" version="1.1" xmlns="http://www.w3.org/2000/svg" xmlns:xlink="http://www.w3.org/1999/xlink" width="400" height="400" viewBox="0, 0, 400,400"><g id="svgg"><path id="path0" d="M92.400 0.800 C 92.400 1.020,92.175 1.204,91.900 1.209 C 91.037 1.224,89.267 2.781,90.100 2.791 C 90.485 2.796,90.800 2.620,90.800 2.400 C 90.800 2.180,91.160 2.000,91.600 2.000 C 92.040 2.000,92.400 1.820,92.400 1.600 C 92.400 1.380,92.850 1.200,93.400 1.200 C 93.950 1.200,94.400 1.020,94.400 0.800 C 94.400 0.580,93.950 0.400,93.400 0.400 C 92.850 0.400,92.400 0.580,92.400 0.800 M106.800 0.800 C 106.800 1.020,107.160 1.200,107.600 1.200 C 108.040 1.200,108.400 1.020,108.400 0.800 C 108.400 0.580,108.040 0.400,107.600 0.400 C 107.160 0.400,106.800 0.580,106.800 0.800 M150.800 0.800 C 150.800 1.020,151.160 1.200,151.600 1.200 C 152.040 1.200,152.400 1.020,152.400 0.800 C 152.400 0.580,152.040 0.400,151.600 0.400 C 151.160 0.400,150.800 0.580,150.800 0.800 M164.800 0.800 C 164.800 1.020,165.250 1.200,165.800 1.200 C 166.350 1.200,166.800 1.380,166.800 1.600 C 166.800 1.820,167.160 2.000,167.600 2.000 C 168.040 2.000,168.400 2.180,168.400 2.400 C 168.400 2.620,168.715 2.796,169.100 2.791 C 169.668 2.784,169.614 2.639,168.811 2.022 C 168.267 1.604,167.681 1.350,167.508 1.457 C 167.336 1.563,167.086 1.369,166.954 1.025 C 166.693 0.345,164.800 0.147,164.800 0.800 M108.800 1.600 C 108.800 1.820,109.070 2.000,109.400 2.000 C 109.730 2.000,110.000 1.820,110.000 1.600 C 110.000 1.380,109.730 1.200,109.400 1.200 C 109.070 1.200,108.800 1.380,108.800 1.600 M149.200 1.600 C 149.200 1.820,149.470 2.000,149.800 2.000 C 150.130 2.000,150.400 1.820,150.400 1.600 C 150.400 1.380,150.130 1.200,149.800 1.200 C 149.470 1.200,149.200 1.380,149.200 1.600 M110.400 2.400 C 110.400 2.620,110.604 2.800,110.853 2.800 C 111.102 2.800,111.643 3.189,112.056 3.664 C 112.468 4.139,112.923 4.410,113.067 4.266 C 113.211 4.122,112.805 3.553,112.165 3.003 C 110.921 1.933,110.400 1.755,110.400 2.400 M146.860 3.051 C 146.343 3.602,146.027 4.160,146.157 4.291 C 146.288 4.421,146.732 4.139,147.144 3.664 C 147.557 3.189,148.098 2.800,148.347 2.800 C 148.596 2.800,148.800 2.620,148.800 2.400 C 148.800 1.693,147.827 2.020,146.860 3.051 M86.901 4.685 C 85.967 5.703,85.279 6.612,85.373 6.706 C 85.555 6.888,89.200 3.368,89.200 3.011 C 89.200 2.452,88.450 2.998,86.901 4.685 M170.000 3.011 C 170.000 3.416,173.658 6.875,173.867 6.667 C 173.982 6.551,173.255 5.634,172.249 4.628 C 170.521 2.900,170.000 2.525,170.000 3.011 M143.723 6.297 C 143.241 6.892,142.915 7.448,142.999 7.532 C 143.171 7.704,145.200 5.756,145.200 5.418 C 145.200 4.900,144.535 5.295,143.723 6.297 M114.800 6.229 C 114.800 6.653,116.036 7.697,116.267 7.467 C 116.392 7.341,116.217 6.960,115.876 6.619 C 115.241 5.984,114.800 5.824,114.800 6.229 M83.936 8.800 C 83.644 9.460,83.269 10.000,83.102 10.000 C 82.936 10.000,82.800 10.360,82.800 10.800 C 82.800 11.240,82.980 11.600,83.200 11.600 C 83.420 11.600,83.600 11.240,83.600 10.800 C 83.600 10.360,83.780 10.000,84.000 10.000 C 84.220 10.000,84.400 9.640,84.400 9.200 C 84.400 8.760,84.580 8.400,84.800 8.400 C 85.020 8.400,85.200 8.220,85.200 8.000 C 85.200 7.169,84.447 7.646,83.936 8.800 M174.000 8.000 C 174.000 8.220,174.180 8.400,174.400 8.400 C 174.620 8.400,174.800 8.796,174.800 9.280 C 174.800 9.911,174.922 10.038,175.233 9.727 C 175.543 9.417,175.516 9.055,175.137 8.447 C 174.579 7.554,174.000 7.326,174.000 8.000 M116.400 8.800 C 116.400 9.020,116.580 9.200,116.800 9.200 C 117.020 9.200,117.200 9.596,117.200 10.080 C 117.200 10.711,117.322 10.838,117.633 10.527 C 117.943 10.217,117.916 9.855,117.537 9.247 C 116.979 8.354,116.400 8.126,116.400 8.800 M141.696 9.195 C 141.097 10.155,141.058 10.800,141.600 10.800 C 141.820 10.800,142.000 10.440,142.000 10.000 C 142.000 9.560,142.180 9.200,142.400 9.200 C 142.620 9.200,142.800 9.020,142.800 8.800 C 142.800 8.141,142.226 8.346,141.696 9.195 M175.600 10.800 C 175.600 11.240,175.780 11.600,176.000 11.600 C 176.220 11.600,176.400 11.240,176.400 10.800 C 176.400 10.360,176.220 10.000,176.000 10.000 C 175.780 10.000,175.600 10.360,175.600 10.800 M118.000 12.200 C 118.000 12.796,118.172 13.141,118.400 13.000 C 118.620 12.864,118.800 12.504,118.800 12.200 C 118.800 11.896,118.620 11.536,118.400 11.400 C 118.172 11.259,118.000 11.604,118.000 12.200 M140.400 12.400 C 140.400 12.840,140.580 13.200,140.800 13.200 C 141.020 13.200,141.200 12.840,141.200 12.400 C 141.200 11.960,141.020 11.600,140.800 11.600 C 140.580 11.600,140.400 11.960,140.400 12.400 M82.000 13.600 C 82.000 14.260,82.180 14.800,82.400 14.800 C 82.620 14.800,82.800 14.260,82.800 13.600 C 82.800 12.940,82.620 12.400,82.400 12.400 C 82.180 12.400,82.000 12.940,82.000 13.600 M176.400 13.400 C 176.400 13.950,176.580 14.400,176.800 14.400 C 177.020 14.400,177.200 13.950,177.200 13.400 C 177.200 12.850,177.020 12.400,176.800 12.400 C 176.580 12.400,176.400 12.850,176.400 13.400 M118.800 18.200 C 118.800 20.930,118.943 22.359,119.200 22.200 C 119.421 22.064,119.600 20.270,119.600 18.200 C 119.600 16.130,119.421 14.336,119.200 14.200 C 118.943 14.041,118.800 15.470,118.800 18.200 M139.600 18.400 C 139.600 20.533,139.763 22.000,140.000 22.000 C 140.237 22.000,140.400 20.533,140.400 18.400 C 140.400 16.267,140.237 14.800,140.000 14.800 C 139.763 14.800,139.600 16.267,139.600 18.400 M177.200 18.000 C 177.200 18.747,177.307 18.853,177.680 18.480 C 178.053 18.107,178.053 17.893,177.680 17.520 C 177.307 17.147,177.200 17.253,177.200 18.000 M82.000 22.376 C 82.000 22.803,82.180 23.264,82.400 23.400 C 82.627 23.540,82.800 23.204,82.800 22.624 C 82.800 22.061,82.620 21.600,82.400 21.600 C 82.180 21.600,82.000 21.949,82.000 22.376 M176.400 23.024 C 176.400 23.604,176.573 23.940,176.800 23.800 C 177.020 23.664,177.200 23.203,177.200 22.776 C 177.200 22.349,177.020 22.000,176.800 22.000 C 176.580 22.000,176.400 22.461,176.400 23.024 M118.000 24.200 C 118.000 24.750,118.180 25.200,118.400 25.200 C 118.620 25.200,118.800 24.750,118.800 24.200 C 118.800 23.650,118.620 23.200,118.400 23.200 C 118.180 23.200,118.000 23.650,118.000 24.200 M140.400 23.976 C 140.400 24.403,140.580 24.864,140.800 25.000 C 141.027 25.140,141.200 24.804,141.200 24.224 C 141.200 23.661,141.020 23.200,140.800 23.200 C 140.580 23.200,140.400 23.549,140.400 23.976 M83.012 24.917 C 82.841 25.312,82.813 25.747,82.951 25.884 C 83.357 26.290,83.684 25.720,83.497 24.931 C 83.332 24.233,83.310 24.232,83.012 24.917 M175.600 25.400 C 175.600 25.730,175.780 26.000,176.000 26.000 C 176.220 26.000,176.400 25.730,176.400 25.400 C 176.400 25.070,176.220 24.800,176.000 24.800 C 175.780 24.800,175.600 25.070,175.600 25.400 M116.400 27.800 C 116.400 28.130,116.220 28.400,116.000 28.400 C 115.780 28.400,115.600 28.608,115.600 28.862 C 115.600 29.124,115.946 29.011,116.400 28.600 C 117.264 27.818,117.441 27.200,116.800 27.200 C 116.580 27.200,116.400 27.470,116.400 27.800 M142.013 27.500 C 142.040 28.133,143.206 29.326,143.496 29.016 C 143.663 28.837,143.575 28.610,143.300 28.512 C 143.025 28.414,142.800 28.078,142.800 27.767 C 142.800 27.455,142.620 27.200,142.400 27.200 C 142.180 27.200,142.006 27.335,142.013 27.500 M84.400 28.618 C 84.400 29.032,86.449 30.884,86.667 30.667 C 86.787 30.547,86.424 29.988,85.861 29.424 C 84.865 28.428,84.400 28.172,84.400 28.618 M173.260 29.451 C 172.743 30.002,172.417 30.550,172.536 30.669 C 172.752 30.885,174.800 29.030,174.800 28.618 C 174.800 28.147,174.156 28.495,173.260 29.451 M113.661 31.455 C 112.925 32.225,112.397 32.931,112.489 33.022 C 112.683 33.216,115.600 30.613,115.600 30.246 C 115.600 29.708,114.936 30.121,113.661 31.455 M144.050 30.700 C 144.866 31.741,146.543 33.191,146.723 33.011 C 146.912 32.822,144.139 30.000,143.764 30.000 C 143.620 30.000,143.749 30.315,144.050 30.700 M87.600 31.846 C 87.600 31.981,88.265 32.701,89.078 33.446 C 90.534 34.780,91.600 35.183,91.600 34.400 C 91.600 34.180,91.312 34.000,90.960 34.000 C 90.609 34.000,89.817 33.460,89.200 32.800 C 88.117 31.641,87.600 31.332,87.600 31.846 M170.000 32.800 C 169.450 33.447,168.685 33.981,168.300 33.988 C 167.915 33.995,167.600 34.180,167.600 34.400 C 167.600 35.183,168.666 34.780,170.122 33.446 C 170.935 32.701,171.600 31.981,171.600 31.846 C 171.600 31.298,170.945 31.689,170.000 32.800 M147.600 33.456 C 147.600 33.766,148.881 34.770,149.300 34.787 C 149.465 34.794,149.600 34.620,149.600 34.400 C 149.600 34.180,149.330 34.000,149.000 34.000 C 148.670 34.000,148.400 33.820,148.400 33.600 C 148.400 33.380,148.220 33.200,148.000 33.200 C 147.780 33.200,147.600 33.315,147.600 33.456 M109.680 34.480 C 109.089 35.071,109.016 41.200,109.600 41.200 C 109.833 41.200,110.000 39.867,110.000 38.000 C 110.000 36.133,110.167 34.800,110.400 34.800 C 110.620 34.800,110.800 34.620,110.800 34.400 C 110.800 33.858,110.264 33.896,109.680 34.480 M70.800 41.600 C 70.800 41.820,71.700 42.000,72.800 42.000 C 73.900 42.000,74.800 41.820,74.800 41.600 C 74.800 41.380,73.900 41.200,72.800 41.200 C 71.700 41.200,70.800 41.380,70.800 41.600 M324.800 41.600 C 324.800 41.820,325.430 42.000,326.200 42.000 C 326.970 42.000,327.600 41.820,327.600 41.600 C 327.600 41.380,326.970 41.200,326.200 41.200 C 325.430 41.200,324.800 41.380,324.800 41.600 M66.800 42.400 C 66.800 42.620,67.250 42.800,67.800 42.800 C 68.350 42.800,68.800 42.620,68.800 42.400 C 68.800 42.180,68.350 42.000,67.800 42.000 C 67.250 42.000,66.800 42.180,66.800 42.400 M330.400 42.400 C 330.400 42.620,331.030 42.800,331.800 42.800 C 332.570 42.800,333.200 42.620,333.200 42.400 C 333.200 42.180,332.570 42.000,331.800 42.000 C 331.030 42.000,330.400 42.180,330.400 42.400 M62.800 43.200 C 62.800 43.420,63.250 43.600,63.800 43.600 C 64.350 43.600,64.800 43.420,64.800 43.200 C 64.800 42.980,64.350 42.800,63.800 42.800 C 63.250 42.800,62.800 42.980,62.800 43.200 M335.000 43.200 C 334.855 43.434,335.270 43.600,336.000 43.600 C 336.730 43.600,337.145 43.434,337.000 43.200 C 336.864 42.980,336.414 42.800,336.000 42.800 C 335.586 42.800,335.136 42.980,335.000 43.200 M59.600 44.000 C 59.600 44.220,60.050 44.400,60.600 44.400 C 61.150 44.400,61.600 44.220,61.600 44.000 C 61.600 43.780,61.150 43.600,60.600 43.600 C 60.050 43.600,59.600 43.780,59.600 44.000 M338.000 44.000 C 338.000 44.220,338.360 44.400,338.800 44.400 C 339.240 44.400,339.600 44.220,339.600 44.000 C 339.600 43.780,339.240 43.600,338.800 43.600 C 338.360 43.600,338.000 43.780,338.000 44.000 M57.200 44.800 C 57.200 45.020,57.470 45.200,57.800 45.200 C 58.130 45.200,58.400 45.020,58.400 44.800 C 58.400 44.580,58.130 44.400,57.800 44.400 C 57.470 44.400,57.200 44.580,57.200 44.800 M340.800 44.800 C 340.800 45.020,341.070 45.200,341.400 45.200 C 341.730 45.200,342.000 45.020,342.000 44.800 C 342.000 44.580,341.730 44.400,341.400 44.400 C 341.070 44.400,340.800 44.580,340.800 44.800 M54.800 45.600 C 54.800 45.820,55.070 46.000,55.400 46.000 C 55.730 46.000,56.000 45.820,56.000 45.600 C 56.000 45.380,55.730 45.200,55.400 45.200 C 55.070 45.200,54.800 45.380,54.800 45.600 M343.200 45.600 C 343.200 45.820,343.650 46.000,344.200 46.000 C 344.750 46.000,345.200 45.820,345.200 45.600 C 345.200 45.380,344.750 45.200,344.200 45.200 C 343.650 45.200,343.200 45.380,343.200 45.600 M52.400 46.400 C 52.400 46.620,52.771 46.800,53.224 46.800 C 53.677 46.800,53.936 46.620,53.800 46.400 C 53.664 46.180,53.293 46.000,52.976 46.000 C 52.659 46.000,52.400 46.180,52.400 46.400 M345.600 46.400 C 345.600 46.620,345.870 46.800,346.200 46.800 C 346.530 46.800,346.800 46.620,346.800 46.400 C 346.800 46.180,346.530 46.000,346.200 46.000 C 345.870 46.000,345.600 46.180,345.600 46.400 M347.600 47.200 C 347.600 47.420,347.960 47.600,348.400 47.600 C 348.840 47.600,349.200 47.420,349.200 47.200 C 349.200 46.980,348.840 46.800,348.400 46.800 C 347.960 46.800,347.600 46.980,347.600 47.200 M48.400 48.000 C 48.400 48.220,48.760 48.400,49.200 48.400 C 49.640 48.400,50.000 48.220,50.000 48.000 C 50.000 47.780,49.640 47.600,49.200 47.600 C 48.760 47.600,48.400 47.780,48.400 48.000 M349.600 48.000 C 349.600 48.220,349.870 48.400,350.200 48.400 C 350.530 48.400,350.800 48.220,350.800 48.000 C 350.800 47.780,350.530 47.600,350.200 47.600 C 349.870 47.600,349.600 47.780,349.600 48.000 M46.800 48.800 C 46.800 49.020,47.070 49.200,47.400 49.200 C 47.730 49.200,48.000 49.020,48.000 48.800 C 48.000 48.580,47.730 48.400,47.400 48.400 C 47.070 48.400,46.800 48.580,46.800 48.800 M351.200 48.800 C 351.200 49.020,351.470 49.200,351.800 49.200 C 352.130 49.200,352.400 49.020,352.400 48.800 C 352.400 48.580,352.130 48.400,351.800 48.400 C 351.470 48.400,351.200 48.580,351.200 48.800 M45.200 49.600 C 45.200 49.820,45.470 50.000,45.800 50.000 C 46.130 50.000,46.400 49.820,46.400 49.600 C 46.400 49.380,46.130 49.200,45.800 49.200 C 45.470 49.200,45.200 49.380,45.200 49.600 M43.800 50.400 C 43.664 50.620,43.281 50.800,42.948 50.800 C 42.174 50.800,41.009 51.949,41.407 52.319 C 41.573 52.474,41.790 52.375,41.888 52.100 C 41.986 51.825,42.412 51.600,42.833 51.600 C 43.255 51.600,43.600 51.420,43.600 51.200 C 43.600 50.980,43.870 50.800,44.200 50.800 C 44.530 50.800,44.800 50.620,44.800 50.400 C 44.800 50.180,44.631 50.000,44.424 50.000 C 44.217 50.000,43.936 50.180,43.800 50.400 M359.200 52.800 C 359.200 53.020,359.455 53.200,359.767 53.200 C 360.078 53.200,360.414 53.425,360.512 53.700 C 360.610 53.975,360.827 54.074,360.993 53.919 C 361.341 53.595,360.268 52.400,359.629 52.400 C 359.393 52.400,359.200 52.580,359.200 52.800 M37.660 53.842 C 37.362 54.178,37.252 54.576,37.414 54.726 C 37.577 54.877,37.790 54.775,37.888 54.500 C 37.986 54.225,38.322 54.000,38.633 54.000 C 38.945 54.000,39.200 53.820,39.200 53.600 C 39.200 53.001,38.274 53.146,37.660 53.842 M362.000 54.229 C 362.000 54.653,363.236 55.697,363.467 55.467 C 363.592 55.341,363.417 54.960,363.076 54.619 C 362.441 53.984,362.000 53.824,362.000 54.229 M35.260 55.442 C 34.531 56.266,35.000 56.657,35.781 55.876 C 36.121 55.536,36.400 55.154,36.400 55.029 C 36.400 54.609,35.806 54.824,35.260 55.442 M364.400 55.829 C 364.400 56.253,365.636 57.297,365.867 57.067 C 365.992 56.941,365.817 56.560,365.476 56.219 C 364.841 55.584,364.400 55.424,364.400 55.829 M33.029 57.029 C 32.605 57.338,32.372 57.705,32.510 57.843 C 32.649 57.982,33.062 57.795,33.429 57.429 C 34.291 56.566,34.025 56.300,33.029 57.029 M367.600 58.218 C 367.600 58.632,369.649 60.484,369.867 60.267 C 369.987 60.147,369.624 59.588,369.061 59.024 C 368.065 58.028,367.600 57.772,367.600 58.218 M29.260 59.851 C 28.743 60.402,28.417 60.950,28.536 61.069 C 28.752 61.285,30.800 59.430,30.800 59.018 C 30.800 58.547,30.156 58.895,29.260 59.851 M371.600 61.405 C 371.600 61.781,380.059 70.074,380.250 69.884 C 380.439 69.694,372.175 61.200,371.801 61.200 C 371.691 61.200,371.600 61.292,371.600 61.405 M24.267 64.267 C 23.472 65.085,22.895 65.828,22.984 65.917 C 23.073 66.007,23.807 65.420,24.613 64.613 C 25.420 63.807,25.997 63.064,25.896 62.963 C 25.795 62.861,25.062 63.448,24.267 64.267 M17.661 71.455 C 16.925 72.225,16.418 72.951,16.534 73.068 C 16.745 73.279,19.600 70.621,19.600 70.213 C 19.600 69.708,18.909 70.150,17.661 71.455 M381.200 71.818 C 381.200 72.232,383.249 74.084,383.467 73.867 C 383.587 73.747,383.224 73.188,382.661 72.624 C 381.665 71.628,381.200 71.372,381.200 71.818 M14.928 75.091 C 14.448 75.683,14.166 76.346,14.301 76.564 C 14.442 76.792,14.627 76.714,14.736 76.380 C 14.840 76.061,15.257 75.509,15.663 75.153 C 16.068 74.797,16.400 74.392,16.400 74.253 C 16.400 73.702,15.757 74.069,14.928 75.091 M383.600 75.018 C 383.600 75.364,385.631 77.302,385.808 77.125 C 386.002 76.931,384.210 74.800,383.853 74.800 C 383.714 74.800,383.600 74.898,383.600 75.018 M12.900 77.798 C 12.299 78.481,12.248 79.200,12.800 79.200 C 13.020 79.200,13.200 78.930,13.200 78.600 C 13.200 78.270,13.380 78.000,13.600 78.000 C 13.820 78.000,14.000 77.820,14.000 77.600 C 14.000 77.037,13.489 77.129,12.900 77.798 M10.629 81.829 C 10.205 82.138,9.972 82.505,10.110 82.643 C 10.249 82.782,10.662 82.595,11.029 82.229 C 11.891 81.366,11.625 81.100,10.629 81.829 M389.200 84.000 C 389.200 84.220,389.380 84.400,389.600 84.400 C 389.820 84.400,390.000 84.760,390.000 85.200 C 390.000 85.640,390.180 86.000,390.400 86.000 C 390.620 86.000,390.800 86.360,390.800 86.800 C 390.800 87.240,390.980 87.600,391.200 87.600 C 391.420 87.600,391.600 87.960,391.600 88.400 C 391.600 88.840,391.780 89.200,392.000 89.200 C 392.220 89.200,392.400 89.560,392.400 90.000 C 392.400 90.440,392.580 90.800,392.800 90.800 C 393.020 90.800,393.200 90.541,393.200 90.224 C 393.200 89.907,393.020 89.536,392.800 89.400 C 392.580 89.264,392.400 88.803,392.400 88.376 C 392.400 87.949,392.220 87.600,392.000 87.600 C 391.780 87.600,391.600 87.240,391.600 86.800 C 391.600 86.360,391.420 86.000,391.200 86.000 C 390.980 86.000,390.800 85.717,390.800 85.371 C 390.800 84.765,389.898 83.600,389.429 83.600 C 389.303 83.600,389.200 83.780,389.200 84.000 M5.200 92.200 C 5.200 92.530,5.380 92.800,5.600 92.800 C 5.820 92.800,6.000 92.530,6.000 92.200 C 6.000 91.870,5.820 91.600,5.600 91.600 C 5.380 91.600,5.200 91.870,5.200 92.200 M394.000 93.800 C 394.000 94.130,394.180 94.400,394.400 94.400 C 394.620 94.400,394.800 94.130,394.800 93.800 C 394.800 93.470,394.620 93.200,394.400 93.200 C 394.180 93.200,394.000 93.470,394.000 93.800 M3.600 96.400 C 3.600 96.840,3.780 97.200,4.000 97.200 C 4.220 97.200,4.400 96.840,4.400 96.400 C 4.400 95.960,4.220 95.600,4.000 95.600 C 3.780 95.600,3.600 95.960,3.600 96.400 M394.800 96.200 C 394.800 96.530,394.980 96.800,395.200 96.800 C 395.420 96.800,395.600 96.530,395.600 96.200 C 395.600 95.870,395.420 95.600,395.200 95.600 C 394.980 95.600,394.800 95.870,394.800 96.200 M395.600 98.176 C 395.600 98.739,395.780 99.200,396.000 99.200 C 396.220 99.200,396.400 98.851,396.400 98.424 C 396.400 97.997,396.220 97.536,396.000 97.400 C 395.773 97.260,395.600 97.596,395.600 98.176 M2.800 98.600 C 2.800 98.930,2.980 99.200,3.200 99.200 C 3.420 99.200,3.600 98.930,3.600 98.600 C 3.600 98.270,3.420 98.000,3.200 98.000 C 2.980 98.000,2.800 98.270,2.800 98.600 M2.212 100.917 C 2.041 101.312,2.013 101.747,2.151 101.884 C 2.557 102.290,2.884 101.720,2.697 100.931 C 2.532 100.233,2.510 100.232,2.212 100.917 M396.400 101.224 C 396.400 101.677,396.580 101.936,396.800 101.800 C 397.020 101.664,397.200 101.293,397.200 100.976 C 397.200 100.659,397.020 100.400,396.800 100.400 C 396.580 100.400,396.400 100.771,396.400 101.224 M1.467 103.067 C 1.048 103.485,1.155 105.200,1.600 105.200 C 1.820 105.200,2.000 104.660,2.000 104.000 C 2.000 102.757,1.919 102.615,1.467 103.067 M397.200 103.800 C 397.200 104.350,397.380 104.800,397.600 104.800 C 397.820 104.800,398.000 104.350,398.000 103.800 C 398.000 103.250,397.820 102.800,397.600 102.800 C 397.380 102.800,397.200 103.250,397.200 103.800 M398.000 107.200 C 398.000 107.860,398.180 108.400,398.400 108.400 C 398.620 108.400,398.800 107.860,398.800 107.200 C 398.800 106.540,398.620 106.000,398.400 106.000 C 398.180 106.000,398.000 106.540,398.000 107.200 M0.400 107.800 C 0.400 108.350,0.580 108.800,0.800 108.800 C 1.020 108.800,1.200 108.350,1.200 107.800 C 1.200 107.250,1.020 106.800,0.800 106.800 C 0.580 106.800,0.400 107.250,0.400 107.800 M0.109 112.400 C 0.109 113.390,0.187 113.795,0.282 113.300 C 0.378 112.805,0.378 111.995,0.282 111.500 C 0.187 111.005,0.109 111.410,0.109 112.400 M398.800 112.224 C 398.800 113.071,398.962 113.547,399.200 113.400 C 399.420 113.264,399.600 112.623,399.600 111.976 C 399.600 111.329,399.420 110.800,399.200 110.800 C 398.980 110.800,398.800 111.441,398.800 112.224 M60.817 117.519 C 60.056 117.894,58.886 118.980,58.217 119.934 L 57.000 121.668 56.887 143.170 C 56.759 167.455,56.716 167.075,59.835 169.454 L 61.338 170.600 93.169 170.600 C 128.943 170.600,126.555 170.800,128.699 167.619 L 129.600 166.282 129.600 143.800 L 129.600 121.318 128.688 119.965 C 128.187 119.221,127.062 118.207,126.188 117.713 L 124.600 116.813 93.400 116.826 C 64.845 116.837,62.083 116.896,60.817 117.519 M156.200 117.398 C 152.048 119.240,152.000 119.545,152.000 143.827 C 152.000 167.397,151.966 167.113,155.035 169.454 L 156.537 170.600 187.482 170.712 C 219.441 170.827,220.499 170.781,222.523 169.189 C 224.845 167.362,224.800 167.870,224.800 143.598 L 224.800 121.318 223.888 119.965 C 223.387 119.221,222.262 118.207,221.388 117.713 L 219.800 116.813 188.600 116.839 C 163.536 116.860,157.164 116.970,156.200 117.398 M399.744 120.800 C 399.744 122.890,399.812 123.745,399.894 122.700 C 399.976 121.655,399.976 119.945,399.894 118.900 C 399.812 117.855,399.744 118.710,399.744 120.800 M399.750 230.600 C 399.751 233.020,399.816 233.958,399.896 232.685 C 399.976 231.412,399.975 229.432,399.894 228.285 C 399.814 227.138,399.749 228.180,399.750 230.600 M0.114 236.200 C 0.117 237.300,0.195 237.703,0.287 237.095 C 0.379 236.486,0.377 235.586,0.282 235.095 C 0.187 234.603,0.111 235.100,0.114 236.200 M398.800 239.024 C 398.800 239.871,398.962 240.347,399.200 240.200 C 399.420 240.064,399.600 239.423,399.600 238.776 C 399.600 238.129,399.420 237.600,399.200 237.600 C 398.980 237.600,398.800 238.241,398.800 239.024 M0.400 241.400 C 0.400 242.170,0.580 242.800,0.800 242.800 C 1.020 242.800,1.200 242.170,1.200 241.400 C 1.200 240.630,1.020 240.000,0.800 240.000 C 0.580 240.000,0.400 240.630,0.400 241.400 M398.000 243.224 C 398.000 243.937,398.167 244.344,398.400 244.200 C 398.620 244.064,398.800 243.513,398.800 242.976 C 398.800 242.439,398.620 242.000,398.400 242.000 C 398.180 242.000,398.000 242.551,398.000 243.224 M1.200 245.000 C 1.200 245.550,1.380 246.000,1.600 246.000 C 1.820 246.000,2.000 245.550,2.000 245.000 C 2.000 244.450,1.820 244.000,1.600 244.000 C 1.380 244.000,1.200 244.450,1.200 245.000 M397.200 246.200 C 397.200 246.530,397.380 246.800,397.600 246.800 C 397.820 246.800,398.000 246.530,398.000 246.200 C 398.000 245.870,397.820 245.600,397.600 245.600 C 397.380 245.600,397.200 245.870,397.200 246.200 M2.000 247.800 C 2.000 248.130,2.180 248.400,2.400 248.400 C 2.620 248.400,2.800 248.130,2.800 247.800 C 2.800 247.470,2.620 247.200,2.400 247.200 C 2.180 247.200,2.000 247.470,2.000 247.800 M396.400 249.224 C 396.400 249.677,396.580 249.936,396.800 249.800 C 397.020 249.664,397.200 249.293,397.200 248.976 C 397.200 248.659,397.020 248.400,396.800 248.400 C 396.580 248.400,396.400 248.771,396.400 249.224 M2.800 250.800 C 2.800 251.240,2.980 251.600,3.200 251.600 C 3.420 251.600,3.600 251.240,3.600 250.800 C 3.600 250.360,3.420 250.000,3.200 250.000 C 2.980 250.000,2.800 250.360,2.800 250.800 M395.600 251.600 C 395.600 252.040,395.780 252.400,396.000 252.400 C 396.220 252.400,396.400 252.040,396.400 251.600 C 396.400 251.160,396.220 250.800,396.000 250.800 C 395.780 250.800,395.600 251.160,395.600 251.600 M3.600 253.200 C 3.600 253.640,3.780 254.000,4.000 254.000 C 4.220 254.000,4.400 253.640,4.400 253.200 C 4.400 252.760,4.220 252.400,4.000 252.400 C 3.780 252.400,3.600 252.760,3.600 253.200 M394.800 253.976 C 394.800 254.429,394.980 254.800,395.200 254.800 C 395.420 254.800,395.600 254.541,395.600 254.224 C 395.600 253.907,395.420 253.536,395.200 253.400 C 394.980 253.264,394.800 253.523,394.800 253.976 M394.000 255.800 C 394.000 256.130,394.180 256.400,394.400 256.400 C 394.620 256.400,394.800 256.130,394.800 255.800 C 394.800 255.470,394.620 255.200,394.400 255.200 C 394.180 255.200,394.000 255.470,394.000 255.800 M5.200 257.200 C 5.200 257.640,5.380 258.000,5.600 258.000 C 5.820 258.000,6.000 257.640,6.000 257.200 C 6.000 256.760,5.820 256.400,5.600 256.400 C 5.380 256.400,5.200 256.760,5.200 257.200 M393.200 258.000 C 393.200 258.440,393.380 258.800,393.600 258.800 C 393.820 258.800,394.000 258.440,394.000 258.000 C 394.000 257.560,393.820 257.200,393.600 257.200 C 393.380 257.200,393.200 257.560,393.200 258.000 M6.000 259.000 C 6.000 259.330,6.180 259.600,6.400 259.600 C 6.620 259.600,6.800 259.330,6.800 259.000 C 6.800 258.670,6.620 258.400,6.400 258.400 C 6.180 258.400,6.000 258.670,6.000 259.000 M392.400 259.800 C 392.400 260.130,392.580 260.400,392.800 260.400 C 393.020 260.400,393.200 260.130,393.200 259.800 C 393.200 259.470,393.020 259.200,392.800 259.200 C 392.580 259.200,392.400 259.470,392.400 259.800 M391.600 261.400 C 391.600 261.730,391.780 262.000,392.000 262.000 C 392.220 262.000,392.400 261.730,392.400 261.400 C 392.400 261.070,392.220 260.800,392.000 260.800 C 391.780 260.800,391.600 261.070,391.600 261.400 M389.630 265.300 C 389.319 266.015,388.875 266.725,388.644 266.878 C 388.412 267.031,388.344 267.278,388.493 267.426 C 388.881 267.814,390.100 266.485,389.800 266.000 C 389.662 265.777,389.831 265.486,390.175 265.354 C 390.519 265.222,390.800 264.864,390.800 264.557 C 390.800 263.584,390.215 263.955,389.630 265.300 M10.013 266.700 C 10.040 267.333,11.206 268.526,11.496 268.216 C 11.663 268.037,11.575 267.810,11.300 267.712 C 11.025 267.614,10.800 267.278,10.800 266.967 C 10.800 266.655,10.620 266.400,10.400 266.400 C 10.180 266.400,10.006 266.535,10.013 266.700 M386.668 270.429 C 386.269 270.895,386.037 271.370,386.152 271.486 C 386.462 271.795,387.687 270.461,387.529 269.987 C 387.455 269.764,387.067 269.963,386.668 270.429 M12.648 270.723 C 12.315 271.261,13.481 272.652,13.907 272.226 C 14.056 272.078,13.984 271.831,13.748 271.678 C 13.513 271.525,13.236 271.139,13.133 270.820 C 12.994 270.388,12.870 270.363,12.648 270.723 M384.523 273.497 C 384.041 274.092,383.715 274.648,383.799 274.732 C 383.971 274.904,386.000 272.956,386.000 272.618 C 386.000 272.100,385.335 272.495,384.523 273.497 M14.800 274.304 C 14.800 274.471,15.160 274.832,15.600 275.107 C 16.530 275.688,16.654 275.397,15.829 274.571 C 15.198 273.941,14.800 273.837,14.800 274.304 M382.060 276.651 C 381.543 277.202,381.219 277.752,381.341 277.874 C 381.562 278.095,382.117 277.612,383.149 276.298 C 383.984 275.235,383.128 275.513,382.060 276.651 M17.622 277.883 C 19.229 279.613,20.142 280.391,20.338 280.195 C 20.523 280.010,16.903 276.400,16.532 276.400 C 16.373 276.400,16.863 277.068,17.622 277.883 M375.664 283.863 C 373.390 286.172,371.615 288.149,371.721 288.254 C 371.916 288.450,380.400 280.196,380.400 279.811 C 380.400 279.208,379.435 280.034,375.664 283.863 M26.800 287.015 C 26.800 287.391,30.496 290.838,30.690 290.643 C 30.793 290.540,30.055 289.634,29.049 288.628 C 27.316 286.895,26.800 286.525,26.800 287.015 M368.460 290.251 C 367.943 290.802,367.617 291.350,367.736 291.469 C 367.952 291.685,370.000 289.830,370.000 289.418 C 370.000 288.947,369.356 289.295,368.460 290.251 M32.051 291.500 C 32.742 292.381,33.754 293.179,33.942 292.992 C 34.123 292.811,32.129 290.800,31.769 290.800 C 31.622 290.800,31.749 291.115,32.051 291.500 M365.260 292.651 C 364.743 293.202,364.419 293.752,364.541 293.874 C 364.762 294.095,365.317 293.612,366.349 292.298 C 367.184 291.235,366.328 291.513,365.260 292.651 M35.293 294.000 C 35.762 294.751,36.400 295.080,36.400 294.571 C 36.400 294.273,35.325 293.200,35.025 293.200 C 34.898 293.200,35.018 293.560,35.293 294.000 M362.460 294.642 C 361.731 295.466,362.200 295.857,362.981 295.076 C 363.321 294.736,363.600 294.354,363.600 294.229 C 363.600 293.809,363.006 294.024,362.460 294.642 M37.200 295.029 C 37.200 295.421,38.322 296.400,38.771 296.400 C 39.007 296.400,39.200 296.220,39.200 296.000 C 39.200 295.780,38.930 295.600,38.600 295.600 C 38.270 295.600,38.000 295.420,38.000 295.200 C 38.000 294.980,37.820 294.800,37.600 294.800 C 37.380 294.800,37.200 294.903,37.200 295.029 M360.400 296.000 C 360.400 296.220,360.130 296.400,359.800 296.400 C 359.470 296.400,359.200 296.580,359.200 296.800 C 359.200 297.382,359.968 297.290,360.629 296.629 C 361.299 295.958,361.358 295.600,360.800 295.600 C 360.580 295.600,360.400 295.780,360.400 296.000 M41.200 297.456 C 41.200 297.766,42.481 298.770,42.900 298.787 C 43.065 298.794,43.200 298.620,43.200 298.400 C 43.200 298.180,42.930 298.000,42.600 298.000 C 42.270 298.000,42.000 297.820,42.000 297.600 C 42.000 297.380,41.820 297.200,41.600 297.200 C 41.380 297.200,41.200 297.315,41.200 297.456 M357.600 297.600 C 357.600 297.820,357.870 298.000,358.200 298.000 C 358.530 298.000,358.800 297.820,358.800 297.600 C 358.800 297.380,358.530 297.200,358.200 297.200 C 357.870 297.200,357.600 297.380,357.600 297.600 M45.200 300.000 C 45.200 300.220,45.470 300.400,45.800 300.400 C 46.130 300.400,46.400 300.220,46.400 300.000 C 46.400 299.780,46.130 299.600,45.800 299.600 C 45.470 299.600,45.200 299.780,45.200 300.000 M46.800 300.800 C 46.800 301.020,47.070 301.200,47.400 301.200 C 47.730 301.200,48.000 301.020,48.000 300.800 C 48.000 300.580,47.730 300.400,47.400 300.400 C 47.070 300.400,46.800 300.580,46.800 300.800 M351.200 300.800 C 351.200 301.020,351.470 301.200,351.800 301.200 C 352.130 301.200,352.400 301.020,352.400 300.800 C 352.400 300.580,352.130 300.400,351.800 300.400 C 351.470 300.400,351.200 300.580,351.200 300.800 M48.400 301.600 C 48.400 301.820,48.760 302.000,49.200 302.000 C 49.640 302.000,50.000 301.820,50.000 301.600 C 50.000 301.380,49.640 301.200,49.200 301.200 C 48.760 301.200,48.400 301.380,48.400 301.600 M349.200 301.600 C 349.200 301.820,349.459 302.000,349.776 302.000 C 350.093 302.000,350.464 301.820,350.600 301.600 C 350.736 301.380,350.477 301.200,350.024 301.200 C 349.571 301.200,349.200 301.380,349.200 301.600 M52.400 303.200 C 52.400 303.420,52.659 303.600,52.976 303.600 C 53.293 303.600,53.664 303.420,53.800 303.200 C 53.936 302.980,53.677 302.800,53.224 302.800 C 52.771 302.800,52.400 302.980,52.400 303.200 M345.600 303.200 C 345.600 303.420,345.870 303.600,346.200 303.600 C 346.530 303.600,346.800 303.420,346.800 303.200 C 346.800 302.980,346.530 302.800,346.200 302.800 C 345.870 302.800,345.600 302.980,345.600 303.200 M54.800 304.000 C 54.800 304.220,55.070 304.400,55.400 304.400 C 55.730 304.400,56.000 304.220,56.000 304.000 C 56.000 303.780,55.730 303.600,55.400 303.600 C 55.070 303.600,54.800 303.780,54.800 304.000 M343.200 304.000 C 343.200 304.220,343.470 304.400,343.800 304.400 C 344.130 304.400,344.400 304.220,344.400 304.000 C 344.400 303.780,344.130 303.600,343.800 303.600 C 343.470 303.600,343.200 303.780,343.200 304.000 M57.200 304.800 C 57.200 305.020,57.470 305.200,57.800 305.200 C 58.130 305.200,58.400 305.020,58.400 304.800 C 58.400 304.580,58.130 304.400,57.800 304.400 C 57.470 304.400,57.200 304.580,57.200 304.800 M340.400 304.800 C 340.400 305.020,340.760 305.200,341.200 305.200 C 341.640 305.200,342.000 305.020,342.000 304.800 C 342.000 304.580,341.640 304.400,341.200 304.400 C 340.760 304.400,340.400 304.580,340.400 304.800 M59.600 305.600 C 59.600 305.820,59.949 306.000,60.376 306.000 C 60.803 306.000,61.264 305.820,61.400 305.600 C 61.540 305.373,61.204 305.200,60.624 305.200 C 60.061 305.200,59.600 305.380,59.600 305.600 M338.000 305.600 C 338.000 305.820,338.360 306.000,338.800 306.000 C 339.240 306.000,339.600 305.820,339.600 305.600 C 339.600 305.380,339.240 305.200,338.800 305.200 C 338.360 305.200,338.000 305.380,338.000 305.600 M62.800 306.400 C 62.800 306.620,63.250 306.800,63.800 306.800 C 64.350 306.800,64.800 306.620,64.800 306.400 C 64.800 306.180,64.350 306.000,63.800 306.000 C 63.250 306.000,62.800 306.180,62.800 306.400 M334.800 306.400 C 334.800 306.620,335.160 306.800,335.600 306.800 C 336.040 306.800,336.400 306.620,336.400 306.400 C 336.400 306.180,336.040 306.000,335.600 306.000 C 335.160 306.000,334.800 306.180,334.800 306.400 M66.800 307.200 C 66.800 307.420,67.430 307.600,68.200 307.600 C 68.970 307.600,69.600 307.420,69.600 307.200 C 69.600 306.980,68.970 306.800,68.200 306.800 C 67.430 306.800,66.800 306.980,66.800 307.200 M330.400 307.200 C 330.400 307.420,331.030 307.600,331.800 307.600 C 332.570 307.600,333.200 307.420,333.200 307.200 C 333.200 306.980,332.570 306.800,331.800 306.800 C 331.030 306.800,330.400 306.980,330.400 307.200 M71.800 308.000 C 71.936 308.220,72.667 308.400,73.424 308.400 C 74.181 308.400,74.800 308.220,74.800 308.000 C 74.800 307.780,74.069 307.600,73.176 307.600 C 72.196 307.600,71.651 307.758,71.800 308.000 M324.800 308.000 C 324.800 308.220,325.430 308.400,326.200 308.400 C 326.970 308.400,327.600 308.220,327.600 308.000 C 327.600 307.780,326.970 307.600,326.200 307.600 C 325.430 307.600,324.800 307.780,324.800 308.000 M190.800 308.620 C 190.800 309.398,282.210 399.994,282.954 399.954 C 283.683 399.914,283.698 399.881,283.062 399.717 C 282.656 399.612,261.822 379.023,236.763 353.963 C 194.080 311.277,190.800 308.042,190.800 308.620 " stroke="none" fill="#fafbfb" fill-rule="evenodd"></path><path id="path1" d="M95.900 0.264 C 95.075 0.365,94.400 0.617,94.400 0.824 C 94.400 1.031,93.950 1.200,93.400 1.200 C 92.850 1.200,92.400 1.380,92.400 1.600 C 92.400 1.820,92.040 2.000,91.600 2.000 C 91.160 2.000,90.800 2.180,90.800 2.400 C 90.800 2.620,90.526 2.800,90.191 2.800 C 89.399 2.800,85.200 6.999,85.200 7.791 C 85.200 8.126,85.020 8.400,84.800 8.400 C 84.580 8.400,84.400 8.760,84.400 9.200 C 84.400 9.640,84.220 10.000,84.000 10.000 C 83.780 10.000,83.600 10.360,83.600 10.800 C 83.600 11.240,83.420 11.600,83.200 11.600 C 82.980 11.600,82.800 12.320,82.800 13.200 C 82.800 14.080,82.620 14.800,82.400 14.800 C 82.165 14.800,82.000 16.200,82.000 18.200 C 82.000 20.200,82.165 21.600,82.400 21.600 C 82.620 21.600,82.800 22.331,82.800 23.224 C 82.800 24.204,82.958 24.749,83.200 24.600 C 83.434 24.455,83.600 24.870,83.600 25.600 C 83.600 26.330,83.766 26.745,84.000 26.600 C 84.220 26.464,84.400 26.741,84.400 27.216 C 84.400 27.691,84.940 28.583,85.600 29.200 C 86.260 29.817,86.800 30.609,86.800 30.960 C 86.800 31.312,87.088 31.600,87.440 31.600 C 87.791 31.600,88.583 32.140,89.200 32.800 C 89.817 33.460,90.609 34.000,90.960 34.000 C 91.499 34.000,91.600 34.568,91.600 37.600 L 91.600 41.200 83.200 41.200 C 77.867 41.200,74.800 41.346,74.800 41.600 C 74.800 41.831,73.533 42.000,71.800 42.000 C 70.067 42.000,68.800 42.169,68.800 42.400 C 68.800 42.620,67.900 42.800,66.800 42.800 C 65.700 42.800,64.800 42.980,64.800 43.200 C 64.800 43.420,64.080 43.600,63.200 43.600 C 62.320 43.600,61.600 43.780,61.600 44.000 C 61.600 44.220,60.880 44.400,60.000 44.400 C 59.120 44.400,58.400 44.580,58.400 44.800 C 58.400 45.020,57.860 45.200,57.200 45.200 C 56.540 45.200,56.000 45.380,56.000 45.600 C 56.000 45.820,55.449 46.000,54.776 46.000 C 54.063 46.000,53.656 46.167,53.800 46.400 C 53.944 46.633,53.537 46.800,52.824 46.800 C 52.151 46.800,51.600 46.980,51.600 47.200 C 51.600 47.420,51.240 47.600,50.800 47.600 C 50.360 47.600,50.000 47.780,50.000 48.000 C 50.000 48.220,49.550 48.400,49.000 48.400 C 48.450 48.400,48.000 48.580,48.000 48.800 C 48.000 49.020,47.640 49.200,47.200 49.200 C 46.760 49.200,46.400 49.380,46.400 49.600 C 46.400 49.820,46.040 50.000,45.600 50.000 C 45.160 50.000,44.800 50.180,44.800 50.400 C 44.800 50.620,44.530 50.800,44.200 50.800 C 43.870 50.800,43.600 50.980,43.600 51.200 C 43.600 51.420,43.240 51.600,42.800 51.600 C 42.360 51.600,42.000 51.780,42.000 52.000 C 42.000 52.220,41.640 52.400,41.200 52.400 C 40.760 52.400,40.400 52.580,40.400 52.800 C 40.400 53.020,40.130 53.200,39.800 53.200 C 39.470 53.200,39.200 53.380,39.200 53.600 C 39.200 53.820,38.930 54.000,38.600 54.000 C 38.270 54.000,38.000 54.180,38.000 54.400 C 38.000 54.620,37.680 54.800,37.288 54.800 C 36.897 54.800,36.317 55.160,36.000 55.600 C 35.683 56.040,35.143 56.400,34.800 56.400 C 34.457 56.400,33.917 56.760,33.600 57.200 C 33.283 57.640,32.779 58.000,32.480 58.000 C 32.182 58.000,31.246 58.720,30.400 59.600 C 29.554 60.480,28.667 61.200,28.427 61.200 C 27.858 61.200,19.600 69.458,19.600 70.027 C 19.600 70.267,18.880 71.154,18.000 72.000 C 17.120 72.846,16.400 73.782,16.400 74.080 C 16.400 74.379,16.040 74.883,15.600 75.200 C 15.160 75.517,14.800 76.017,14.800 76.312 C 14.800 76.606,14.620 76.736,14.400 76.600 C 14.180 76.464,14.000 76.723,14.000 77.176 C 14.000 77.629,13.820 78.000,13.600 78.000 C 13.380 78.000,13.200 78.270,13.200 78.600 C 13.200 78.930,13.020 79.200,12.800 79.200 C 12.580 79.200,12.400 79.470,12.400 79.800 C 12.400 80.130,12.220 80.400,12.000 80.400 C 11.780 80.400,11.600 80.720,11.600 81.112 C 11.600 81.503,11.240 82.083,10.800 82.400 C 10.360 82.717,10.000 83.297,10.000 83.688 C 10.000 84.080,9.820 84.400,9.600 84.400 C 9.380 84.400,9.200 84.760,9.200 85.200 C 9.200 85.640,9.020 86.000,8.800 86.000 C 8.580 86.000,8.400 86.360,8.400 86.800 C 8.400 87.240,8.220 87.600,8.000 87.600 C 7.780 87.600,7.600 87.960,7.600 88.400 C 7.600 88.840,7.420 89.200,7.200 89.200 C 6.980 89.200,6.800 89.560,6.800 90.000 C 6.800 90.440,6.620 90.800,6.400 90.800 C 6.180 90.800,6.000 91.250,6.000 91.800 C 6.000 92.350,5.820 92.800,5.600 92.800 C 5.380 92.800,5.200 93.250,5.200 93.800 C 5.200 94.350,5.020 94.800,4.800 94.800 C 4.580 94.800,4.400 95.340,4.400 96.000 C 4.400 96.660,4.220 97.200,4.000 97.200 C 3.780 97.200,3.600 97.650,3.600 98.200 C 3.600 98.750,3.420 99.200,3.200 99.200 C 2.980 99.200,2.800 99.830,2.800 100.600 C 2.800 101.370,2.620 102.000,2.400 102.000 C 2.180 102.000,2.000 102.720,2.000 103.600 C 2.000 104.480,1.820 105.200,1.600 105.200 C 1.380 105.200,1.200 105.995,1.200 106.967 C 1.200 108.024,0.999 108.800,0.700 108.900 C -0.035 109.145,-0.035 239.655,0.700 239.900 C 1.010 240.003,1.200 240.816,1.200 242.033 C 1.200 243.115,1.380 244.000,1.600 244.000 C 1.820 244.000,2.000 244.720,2.000 245.600 C 2.000 246.480,2.180 247.200,2.400 247.200 C 2.620 247.200,2.800 247.830,2.800 248.600 C 2.800 249.370,2.980 250.000,3.200 250.000 C 3.420 250.000,3.600 250.540,3.600 251.200 C 3.600 251.860,3.780 252.400,4.000 252.400 C 4.220 252.400,4.400 252.850,4.400 253.400 C 4.400 253.950,4.580 254.400,4.800 254.400 C 5.020 254.400,5.200 254.850,5.200 255.400 C 5.200 255.950,5.380 256.400,5.600 256.400 C 5.820 256.400,6.000 256.850,6.000 257.400 C 6.000 257.950,6.180 258.400,6.400 258.400 C 6.620 258.400,6.800 258.760,6.800 259.200 C 6.800 259.640,6.980 260.000,7.200 260.000 C 7.420 260.000,7.600 260.450,7.600 261.000 C 7.600 261.550,7.780 262.000,8.000 262.000 C 8.220 262.000,8.400 262.360,8.400 262.800 C 8.400 263.240,8.580 263.600,8.800 263.600 C 9.020 263.600,9.200 263.960,9.200 264.400 C 9.200 264.840,9.380 265.200,9.600 265.200 C 9.820 265.200,10.000 265.470,10.000 265.800 C 10.000 266.130,10.180 266.400,10.400 266.400 C 10.620 266.400,10.800 266.670,10.800 267.000 C 10.800 267.330,10.980 267.600,11.200 267.600 C 11.420 267.600,11.600 267.960,11.600 268.400 C 11.600 268.840,11.780 269.200,12.000 269.200 C 12.220 269.200,12.400 269.571,12.400 270.024 C 12.400 270.477,12.580 270.736,12.800 270.600 C 13.020 270.464,13.200 270.633,13.200 270.976 C 13.200 271.319,13.380 271.600,13.600 271.600 C 13.820 271.600,14.000 271.843,14.000 272.141 C 14.000 272.438,14.540 273.246,15.200 273.937 C 15.860 274.628,16.400 275.386,16.400 275.622 C 16.400 275.859,17.300 276.929,18.400 278.000 C 19.500 279.071,20.400 280.143,20.400 280.380 C 20.400 280.945,26.255 286.800,26.820 286.800 C 27.057 286.800,28.129 287.700,29.200 288.800 C 30.271 289.900,31.358 290.800,31.614 290.800 C 31.870 290.800,32.583 291.340,33.200 292.000 C 33.817 292.660,34.569 293.200,34.872 293.200 C 35.175 293.200,35.683 293.560,36.000 294.000 C 36.317 294.440,36.897 294.800,37.288 294.800 C 37.680 294.800,38.000 294.980,38.000 295.200 C 38.000 295.420,38.270 295.600,38.600 295.600 C 38.930 295.600,39.200 295.780,39.200 296.000 C 39.200 296.220,39.470 296.400,39.800 296.400 C 40.130 296.400,40.400 296.580,40.400 296.800 C 40.400 297.020,40.760 297.200,41.200 297.200 C 41.640 297.200,42.000 297.380,42.000 297.600 C 42.000 297.820,42.270 298.000,42.600 298.000 C 42.930 298.000,43.200 298.180,43.200 298.400 C 43.200 298.620,43.571 298.800,44.024 298.800 C 44.477 298.800,44.736 298.980,44.600 299.200 C 44.460 299.427,44.796 299.600,45.376 299.600 C 45.939 299.600,46.400 299.780,46.400 300.000 C 46.400 300.220,46.760 300.400,47.200 300.400 C 47.640 300.400,48.000 300.580,48.000 300.800 C 48.000 301.020,48.450 301.200,49.000 301.200 C 49.550 301.200,50.000 301.380,50.000 301.600 C 50.000 301.820,50.360 302.000,50.800 302.000 C 51.240 302.000,51.600 302.180,51.600 302.400 C 51.600 302.620,52.151 302.800,52.824 302.800 C 53.537 302.800,53.944 302.967,53.800 303.200 C 53.656 303.433,54.063 303.600,54.776 303.600 C 55.449 303.600,56.000 303.780,56.000 304.000 C 56.000 304.220,56.540 304.400,57.200 304.400 C 57.860 304.400,58.400 304.580,58.400 304.800 C 58.400 305.020,59.131 305.200,60.024 305.200 C 61.004 305.200,61.549 305.358,61.400 305.600 C 61.249 305.844,61.863 306.000,62.976 306.000 C 63.979 306.000,64.800 306.180,64.800 306.400 C 64.800 306.622,65.867 306.800,67.200 306.800 C 68.533 306.800,69.600 306.978,69.600 307.200 C 69.600 307.426,70.733 307.600,72.200 307.600 C 73.667 307.600,74.800 307.774,74.800 308.000 C 74.800 308.265,94.467 308.400,133.001 308.400 L 191.203 308.400 236.800 354.000 C 261.879 379.080,282.668 399.600,282.999 399.600 C 283.530 399.600,283.600 394.311,283.600 354.000 L 283.600 308.400 304.200 308.400 C 317.667 308.400,324.800 308.261,324.800 308.000 C 324.800 307.771,326.000 307.600,327.600 307.600 C 329.200 307.600,330.400 307.429,330.400 307.200 C 330.400 306.980,331.390 306.800,332.600 306.800 C 333.810 306.800,334.800 306.620,334.800 306.400 C 334.800 306.180,335.520 306.000,336.400 306.000 C 337.280 306.000,338.000 305.820,338.000 305.600 C 338.000 305.380,338.540 305.200,339.200 305.200 C 339.860 305.200,340.400 305.020,340.400 304.800 C 340.400 304.580,341.030 304.400,341.800 304.400 C 342.570 304.400,343.200 304.220,343.200 304.000 C 343.200 303.780,343.740 303.600,344.400 303.600 C 345.060 303.600,345.600 303.420,345.600 303.200 C 345.600 302.980,346.050 302.800,346.600 302.800 C 347.150 302.800,347.600 302.620,347.600 302.400 C 347.600 302.180,347.960 302.000,348.400 302.000 C 348.840 302.000,349.200 301.820,349.200 301.600 C 349.200 301.380,349.650 301.200,350.200 301.200 C 350.750 301.200,351.200 301.020,351.200 300.800 C 351.200 300.580,351.650 300.400,352.200 300.400 C 352.750 300.400,353.200 300.220,353.200 300.000 C 353.200 299.780,353.560 299.600,354.000 299.600 C 354.440 299.600,354.800 299.420,354.800 299.200 C 354.800 298.980,355.160 298.800,355.600 298.800 C 356.040 298.800,356.400 298.620,356.400 298.400 C 356.400 298.180,356.670 298.000,357.000 298.000 C 357.330 298.000,357.600 297.820,357.600 297.600 C 357.600 297.380,357.960 297.200,358.400 297.200 C 358.840 297.200,359.200 297.020,359.200 296.800 C 359.200 296.580,359.470 296.400,359.800 296.400 C 360.130 296.400,360.400 296.220,360.400 296.000 C 360.400 295.780,360.720 295.600,361.112 295.600 C 361.503 295.600,362.083 295.240,362.400 294.800 C 362.717 294.360,363.225 294.000,363.528 294.000 C 363.831 294.000,364.583 293.460,365.200 292.800 C 365.817 292.140,366.537 291.600,366.800 291.600 C 367.063 291.600,367.783 291.060,368.400 290.400 C 369.017 289.740,369.720 289.200,369.964 289.200 C 370.543 289.200,381.200 278.543,381.200 277.964 C 381.200 277.720,381.740 277.017,382.400 276.400 C 383.060 275.783,383.600 275.108,383.600 274.899 C 383.600 274.690,384.140 273.954,384.800 273.263 C 385.460 272.572,386.000 271.818,386.000 271.587 C 386.000 271.356,386.360 270.780,386.800 270.308 C 387.240 269.836,387.600 269.213,387.600 268.925 C 387.600 268.636,387.780 268.400,388.000 268.400 C 388.220 268.400,388.400 268.040,388.400 267.600 C 388.400 267.160,388.580 266.800,388.800 266.800 C 389.020 266.800,389.200 266.519,389.200 266.176 C 389.200 265.833,389.343 265.641,389.517 265.749 C 389.691 265.856,389.863 265.555,389.899 265.078 C 389.935 264.602,390.152 264.149,390.382 264.073 C 390.612 263.996,390.800 263.588,390.800 263.167 C 390.800 262.745,390.980 262.400,391.200 262.400 C 391.420 262.400,391.600 262.040,391.600 261.600 C 391.600 261.160,391.780 260.800,392.000 260.800 C 392.220 260.800,392.400 260.440,392.400 260.000 C 392.400 259.560,392.580 259.200,392.800 259.200 C 393.020 259.200,393.200 258.750,393.200 258.200 C 393.200 257.650,393.380 257.200,393.600 257.200 C 393.820 257.200,394.000 256.750,394.000 256.200 C 394.000 255.650,394.180 255.200,394.400 255.200 C 394.620 255.200,394.800 254.739,394.800 254.176 C 394.800 253.596,394.973 253.260,395.200 253.400 C 395.438 253.547,395.600 253.071,395.600 252.224 C 395.600 251.441,395.780 250.800,396.000 250.800 C 396.220 250.800,396.400 250.260,396.400 249.600 C 396.400 248.940,396.580 248.400,396.800 248.400 C 397.020 248.400,397.200 247.770,397.200 247.000 C 397.200 246.230,397.380 245.600,397.600 245.600 C 397.820 245.600,398.000 244.790,398.000 243.800 C 398.000 242.810,398.180 242.000,398.400 242.000 C 398.620 242.000,398.800 241.025,398.800 239.833 C 398.800 238.456,398.982 237.606,399.300 237.500 C 399.696 237.368,399.830 226.724,399.942 186.567 C 400.082 136.062,399.834 113.008,399.154 113.428 C 398.960 113.549,398.800 112.467,398.800 111.024 C 398.800 109.541,398.626 108.400,398.400 108.400 C 398.180 108.400,398.000 107.590,398.000 106.600 C 398.000 105.610,397.820 104.800,397.600 104.800 C 397.380 104.800,397.200 104.069,397.200 103.176 C 397.200 102.196,397.042 101.651,396.800 101.800 C 396.562 101.947,396.400 101.471,396.400 100.624 C 396.400 99.841,396.220 99.200,396.000 99.200 C 395.780 99.200,395.600 98.660,395.600 98.000 C 395.600 97.340,395.420 96.800,395.200 96.800 C 394.980 96.800,394.800 96.260,394.800 95.600 C 394.800 94.940,394.620 94.400,394.400 94.400 C 394.180 94.400,394.000 93.950,394.000 93.400 C 394.000 92.850,393.820 92.400,393.600 92.400 C 393.380 92.400,393.200 92.040,393.200 91.600 C 393.200 91.160,393.020 90.800,392.800 90.800 C 392.580 90.800,392.400 90.440,392.400 90.000 C 392.400 89.560,392.220 89.200,392.000 89.200 C 391.780 89.200,391.600 88.840,391.600 88.400 C 391.600 87.960,391.420 87.600,391.200 87.600 C 390.980 87.600,390.800 87.240,390.800 86.800 C 390.800 86.360,390.620 86.000,390.400 86.000 C 390.180 86.000,390.000 85.640,390.000 85.200 C 390.000 84.760,389.820 84.400,389.600 84.400 C 389.380 84.400,389.200 84.040,389.200 83.600 C 389.200 83.160,389.020 82.800,388.800 82.800 C 388.580 82.800,388.400 82.440,388.400 82.000 C 388.400 81.560,388.220 81.200,388.000 81.200 C 387.780 81.200,387.600 80.880,387.600 80.488 C 387.600 80.097,387.240 79.517,386.800 79.200 C 386.360 78.883,386.000 78.375,386.000 78.072 C 386.000 77.769,385.460 77.017,384.800 76.400 C 384.140 75.783,383.600 75.063,383.600 74.800 C 383.600 74.537,383.060 73.817,382.400 73.200 C 381.740 72.583,381.200 71.880,381.200 71.636 C 381.200 71.062,370.545 60.400,369.972 60.400 C 369.733 60.400,368.846 59.680,368.000 58.800 C 367.154 57.920,366.218 57.200,365.920 57.200 C 365.621 57.200,365.117 56.840,364.800 56.400 C 364.483 55.960,363.943 55.600,363.600 55.600 C 363.257 55.600,362.717 55.240,362.400 54.800 C 362.083 54.360,361.503 54.000,361.112 54.000 C 360.720 54.000,360.400 53.820,360.400 53.600 C 360.400 53.380,360.130 53.200,359.800 53.200 C 359.470 53.200,359.200 53.020,359.200 52.800 C 359.200 52.580,358.930 52.400,358.600 52.400 C 358.270 52.400,358.000 52.220,358.000 52.000 C 358.000 51.780,357.640 51.600,357.200 51.600 C 356.760 51.600,356.400 51.420,356.400 51.200 C 356.400 50.980,356.040 50.800,355.600 50.800 C 355.160 50.800,354.800 50.620,354.800 50.400 C 354.800 50.180,354.440 50.000,354.000 50.000 C 353.560 50.000,353.200 49.820,353.200 49.600 C 353.200 49.380,352.750 49.200,352.200 49.200 C 351.650 49.200,351.200 49.020,351.200 48.800 C 351.200 48.580,350.840 48.400,350.400 48.400 C 349.960 48.400,349.600 48.220,349.600 48.000 C 349.600 47.780,349.150 47.600,348.600 47.600 C 348.050 47.600,347.600 47.420,347.600 47.200 C 347.600 46.980,347.150 46.800,346.600 46.800 C 346.050 46.800,345.600 46.620,345.600 46.400 C 345.600 46.180,345.060 46.000,344.400 46.000 C 343.740 46.000,343.200 45.820,343.200 45.600 C 343.200 45.380,342.660 45.200,342.000 45.200 C 341.340 45.200,340.800 45.020,340.800 44.800 C 340.800 44.580,340.170 44.400,339.400 44.400 C 338.630 44.400,338.000 44.220,338.000 44.000 C 338.000 43.780,337.269 43.600,336.376 43.600 C 335.396 43.600,334.851 43.442,335.000 43.200 C 335.154 42.950,334.337 42.800,332.824 42.800 C 331.475 42.800,330.400 42.623,330.400 42.400 C 330.400 42.171,329.200 42.000,327.600 42.000 C 326.000 42.000,324.800 41.829,324.800 41.600 C 324.800 41.335,298.333 41.200,246.200 41.200 L 167.600 41.200 167.600 37.600 C 167.600 34.568,167.701 34.000,168.240 34.000 C 168.591 34.000,169.383 33.460,170.000 32.800 C 170.617 32.140,171.409 31.600,171.760 31.600 C 172.112 31.600,172.400 31.312,172.400 30.960 C 172.400 30.609,172.940 29.817,173.600 29.200 C 174.260 28.583,174.800 27.791,174.800 27.440 C 174.800 27.088,174.980 26.800,175.200 26.800 C 175.420 26.800,175.600 26.350,175.600 25.800 C 175.600 25.250,175.780 24.800,176.000 24.800 C 176.220 24.800,176.400 24.170,176.400 23.400 C 176.400 22.630,176.580 22.000,176.800 22.000 C 177.039 22.000,177.200 20.467,177.200 18.200 C 177.200 15.933,177.039 14.400,176.800 14.400 C 176.580 14.400,176.400 13.770,176.400 13.000 C 176.400 12.230,176.220 11.600,176.000 11.600 C 175.780 11.600,175.600 11.139,175.600 10.576 C 175.600 9.996,175.427 9.660,175.200 9.800 C 174.980 9.936,174.800 9.677,174.800 9.224 C 174.800 8.771,174.620 8.400,174.400 8.400 C 174.180 8.400,174.000 8.126,174.000 7.791 C 174.000 6.999,169.801 2.800,169.009 2.800 C 168.674 2.800,168.400 2.620,168.400 2.400 C 168.400 2.180,168.040 2.000,167.600 2.000 C 167.160 2.000,166.800 1.820,166.800 1.600 C 166.800 1.380,166.365 1.200,165.833 1.200 C 165.302 1.200,164.792 0.975,164.700 0.700 C 164.577 0.330,162.991 0.200,158.600 0.200 C 154.209 0.200,152.623 0.330,152.500 0.700 C 152.408 0.975,151.898 1.200,151.367 1.200 C 150.835 1.200,150.400 1.380,150.400 1.600 C 150.400 1.820,150.040 2.000,149.600 2.000 C 149.160 2.000,148.800 2.180,148.800 2.400 C 148.800 2.620,148.570 2.800,148.288 2.800 C 148.007 2.800,147.517 3.160,147.200 3.600 C 146.883 4.040,146.303 4.400,145.912 4.400 C 145.520 4.400,145.200 4.688,145.200 5.040 C 145.200 5.391,144.660 6.183,144.000 6.800 C 143.340 7.417,142.800 8.209,142.800 8.560 C 142.800 8.912,142.620 9.200,142.400 9.200 C 142.180 9.200,142.000 9.560,142.000 10.000 C 142.000 10.440,141.820 10.800,141.600 10.800 C 141.380 10.800,141.200 11.340,141.200 12.000 C 141.200 12.660,141.020 13.200,140.800 13.200 C 140.555 13.200,140.400 15.133,140.400 18.200 C 140.400 21.267,140.555 23.200,140.800 23.200 C 141.020 23.200,141.200 23.841,141.200 24.624 C 141.200 25.471,141.362 25.947,141.600 25.800 C 141.820 25.664,142.000 25.923,142.000 26.376 C 142.000 26.829,142.180 27.200,142.400 27.200 C 142.620 27.200,142.800 27.470,142.800 27.800 C 142.800 28.130,142.980 28.400,143.200 28.400 C 143.420 28.400,143.600 28.675,143.600 29.011 C 143.600 29.804,146.996 33.200,147.789 33.200 C 148.125 33.200,148.400 33.380,148.400 33.600 C 148.400 33.820,148.651 34.000,148.957 34.000 C 149.774 34.000,150.000 34.916,150.000 38.233 L 150.000 41.200 129.600 41.200 L 109.200 41.200 109.200 38.080 C 109.200 34.994,109.563 34.000,110.689 34.000 C 111.423 34.000,115.600 29.755,115.600 29.009 C 115.600 28.674,115.780 28.400,116.000 28.400 C 116.220 28.400,116.400 28.130,116.400 27.800 C 116.400 27.470,116.535 27.199,116.700 27.197 C 117.147 27.192,118.000 25.174,118.000 24.120 C 118.000 23.614,118.180 23.200,118.400 23.200 C 118.646 23.200,118.800 21.192,118.800 17.976 C 118.800 14.596,118.659 12.840,118.400 13.000 C 118.161 13.147,118.000 12.663,118.000 11.800 C 118.000 10.937,117.839 10.453,117.600 10.600 C 117.380 10.736,117.200 10.477,117.200 10.024 C 117.200 9.571,117.020 9.200,116.800 9.200 C 116.580 9.200,116.400 8.880,116.400 8.488 C 116.400 8.097,116.040 7.517,115.600 7.200 C 115.160 6.883,114.800 6.334,114.800 5.979 C 114.800 5.625,114.305 5.081,113.700 4.770 C 113.095 4.460,112.309 3.889,111.953 3.503 C 111.597 3.116,111.102 2.800,110.853 2.800 C 110.604 2.800,110.400 2.620,110.400 2.400 C 110.400 2.180,110.040 2.000,109.600 2.000 C 109.160 2.000,108.800 1.820,108.800 1.600 C 108.800 1.380,108.365 1.200,107.833 1.200 C 107.302 1.200,106.802 1.007,106.724 0.772 C 106.572 0.315,98.549 -0.061,95.900 0.264 M126.188 117.713 C 127.062 118.207,128.187 119.221,128.688 119.965 L 129.600 121.318 129.600 143.800 L 129.600 166.282 128.699 167.619 C 126.555 170.800,128.943 170.600,93.169 170.600 L 61.338 170.600 59.835 169.454 C 56.716 167.075,56.759 167.455,56.887 143.170 L 57.000 121.668 58.217 119.934 C 60.528 116.640,58.259 116.840,93.400 116.826 L 124.600 116.813 126.188 117.713 M221.388 117.713 C 222.262 118.207,223.387 119.221,223.888 119.965 L 224.800 121.318 224.800 143.598 C 224.800 167.870,224.845 167.362,222.523 169.189 C 220.499 170.781,219.441 170.827,187.482 170.712 L 156.537 170.600 155.035 169.454 C 151.966 167.113,152.000 167.397,152.000 143.827 C 152.000 121.600,152.036 121.148,153.954 119.065 C 156.052 116.788,154.819 116.867,188.600 116.839 L 219.800 116.813 221.388 117.713 " stroke="none" fill="#748cdc" fill-rule="evenodd"></path></g></svg>